<?xml version="1.0" encoding="utf-8"?>
<svg version="1.1" id="Layer_1" x="0px" y="0px" viewBox="0 0 512 512" style="enable-background:new 0 0 512 512;" xmlns="http://www.w3.org/2000/svg">
  <path style="fill: rgb(227, 122, 126);" d="M0,256c0,141.158,114.842,256,256,256V0C114.842,0,0,114.842,0,256z"/>
  <path style="fill: rgb(200, 15, 58);" d="M256,0v512c141.158,0,256-114.842,256-256S397.158,0,256,0z"/>
  <path style="" d="M 363.664 192.999 L 256.003 300.663 L 148.334 192.999 C 139.247 183.912 124.512 183.91 115.42 192.999 C 106.333 202.086 106.333 216.823 115.422 225.911 L 239.546 350.034 C 243.912 354.398 249.829 356.85 256.003 356.85 C 262.175 356.85 268.096 354.399 272.46 350.033 L 396.578 225.912 C 405.665 216.825 405.665 202.088 396.576 193 C 387.489 183.91 372.755 183.909 363.664 192.999 Z" transform="matrix(-0.999993, -0.003719, 0.003719, -0.999993, 510.986542, 543.982121)"/>
  <g/>
  <g/>
  <g/>
  <g/>
  <g/>
  <g/>
  <g/>
  <g/>
  <g/>
  <g/>
  <g/>
  <g/>
  <g/>
  <g/>
  <g/>
</svg>