<?xml version="1.0" encoding="utf-8"?>
<svg version="1.1" id="Layer_1" x="0px" y="0px" viewBox="0 0 512 512" style="enable-background:new 0 0 512 512;" xmlns="http://www.w3.org/2000/svg">
  <path style="fill: rgb(227, 122, 126);" d="M0,256c0,141.158,114.842,256,256,256V0C114.842,0,0,114.842,0,256z"/>
  <path style="fill: rgb(200, 15, 58);" d="M256,0v512c141.158,0,256-114.842,256-256S397.158,0,256,0z"/>
  <path style="" d="M363.664,192.999L256.003,300.663L148.334,192.999c-9.087-9.087-23.822-9.089-32.914,0 c-9.087,9.087-9.087,23.824,0.002,32.912l124.124,124.123c4.366,4.364,10.283,6.816,16.457,6.816c6.172,0,12.093-2.451,16.457-6.817 l124.118-124.121c9.087-9.087,9.087-23.824-0.002-32.912C387.489,183.91,372.755,183.909,363.664,192.999z"/>
  <g/>
  <g/>
  <g/>
  <g/>
  <g/>
  <g/>
  <g/>
  <g/>
  <g/>
  <g/>
  <g/>
  <g/>
  <g/>
  <g/>
  <g/>
</svg>